<svg version="1.1" id="Layer_1" xmlns="http://www.w3.org/2000/svg" xmlns:xlink="http://www.w3.org/1999/xlink" x="0px" y="0px"
	 width="100%" viewBox="0 0 495 504" enable-background="new 0 0 495 504" xml:space="preserve">
<path fill="#000000" opacity="1.000000" stroke="none" 
	d="
M239.000000,505.000000 
	C159.333359,505.000000 80.166702,505.000000 1.000042,505.000000 
	C1.000028,337.000061 1.000028,169.000122 1.000014,1.000133 
	C165.999893,1.000088 330.999786,1.000088 495.999756,1.000044 
	C495.999847,168.999863 495.999847,336.999725 495.999939,504.999786 
	C410.500000,505.000000 325.000000,505.000000 239.000000,505.000000 
M253.018860,455.980316 
	C253.018860,455.980316 253.086304,455.968384 253.292526,456.542389 
	C254.139252,457.398560 254.985977,458.254761 256.099548,459.726166 
	C268.489594,471.645264 283.256714,477.603851 300.951050,477.904480 
	C300.951050,475.474335 300.951263,473.518982 300.950989,471.563629 
	C300.945404,430.596436 300.905457,389.629181 301.018433,348.662323 
	C301.025299,346.177521 301.785706,343.443085 302.984283,341.257324 
	C307.923584,332.249695 313.165070,323.407715 318.299744,314.507294 
	C340.543457,275.950500 362.792480,237.396729 385.013062,198.826569 
	C385.621368,197.770660 385.929260,196.541672 386.563416,194.916153 
	C373.959930,194.916153 361.994202,194.732498 350.036011,194.954437 
	C325.278595,195.413910 306.892517,206.692780 294.987579,228.332458 
	C293.893402,230.321365 293.558014,233.433823 294.247253,235.582993 
	C298.672241,249.381119 300.712494,263.411011 299.263977,277.856232 
	C296.086700,309.540924 282.167328,336.857056 264.000427,362.087158 
	C263.795868,361.903168 263.591339,361.719147 263.582916,360.826202 
	C264.183655,359.102631 264.778503,357.376953 265.386017,355.655762 
	C274.280823,330.454193 280.850372,304.823181 278.751709,277.768890 
	C277.051514,255.851410 269.300201,236.572723 252.678741,220.639374 
	C246.794952,216.028854 240.911163,211.418335 234.630600,206.287949 
	C222.766937,200.313690 210.903290,194.339447 198.518417,188.014587 
	C198.312714,187.975510 198.106995,187.936447 197.510269,187.444427 
	C196.378845,187.051559 195.247421,186.658676 193.472900,185.899719 
	C183.042023,181.942017 172.611130,177.984299 161.608521,173.593994 
	C151.039352,168.393372 140.033371,163.911758 130.005692,157.819809 
	C115.770103,149.171463 108.391281,136.526627 111.984550,119.143753 
	C112.273735,117.744774 112.022697,116.234123 112.022697,114.775360 
	C100.919075,129.062561 99.031822,145.054382 101.199547,161.746582 
	C103.354599,178.341248 109.800499,193.315720 119.711723,207.059296 
	C116.566765,205.439438 114.024254,203.420288 111.857567,201.056625 
	C109.733719,198.739716 107.845612,196.168106 106.123268,193.532364 
	C104.310020,190.757507 102.704048,187.830353 101.214622,184.865692 
	C99.837097,182.123749 98.733612,179.244125 97.195724,175.702728 
	C96.857727,177.089127 96.497627,177.736343 96.588737,178.312164 
	C100.123917,200.655273 106.929497,221.567871 122.351273,238.837997 
	C122.127655,239.002075 121.904037,239.166138 120.997261,239.166046 
	C118.865280,238.005432 116.733299,236.844818 114.601318,235.684189 
	C127.409912,257.491302 146.905151,270.775452 169.283234,281.597931 
	C180.942947,289.021210 192.602661,296.444519 204.714279,304.341797 
	C212.549225,312.584320 220.384171,320.826843 228.401001,329.720825 
	C229.704559,332.030792 230.770966,334.520355 232.357849,336.615753 
	C236.482468,342.062134 237.452301,348.075745 237.341812,354.810211 
	C237.006760,375.233368 236.919586,395.669525 237.262329,416.091766 
	C237.502304,430.390930 242.025208,443.387207 251.850418,453.972809 
	C251.850418,453.972809 251.594330,454.354889 251.777420,454.885010 
	C252.195145,455.227631 252.612869,455.570251 253.018860,455.980316 
z"/>
<path fill="#F308F5" opacity="1.000000" stroke="none" 
	d="
M264.588806,362.666016 
	C282.167328,336.857056 296.086700,309.540924 299.263977,277.856232 
	C300.712494,263.411011 298.672241,249.381119 294.247253,235.582993 
	C293.558014,233.433823 293.893402,230.321365 294.987579,228.332458 
	C306.892517,206.692780 325.278595,195.413910 350.036011,194.954437 
	C361.994202,194.732498 373.959930,194.916153 386.563416,194.916153 
	C385.929260,196.541672 385.621368,197.770660 385.013062,198.826569 
	C362.792480,237.396729 340.543457,275.950500 318.299744,314.507294 
	C313.165070,323.407715 307.923584,332.249695 302.984283,341.257324 
	C301.785706,343.443085 301.025299,346.177521 301.018433,348.662323 
	C300.905457,389.629181 300.945404,430.596436 300.950989,471.563629 
	C300.951263,473.518982 300.951050,475.474335 300.951050,477.904480 
	C283.256714,477.603851 268.489594,471.645264 256.123901,459.211426 
	C255.127594,457.787262 254.106949,456.877808 253.086304,455.968384 
	C253.086304,455.968384 253.018860,455.980316 252.963684,455.662048 
	C252.470459,455.014130 252.032394,454.684509 251.594330,454.354889 
	C251.594330,454.354889 251.850418,453.972809 251.769897,453.790802 
	C251.550735,449.325165 245.798416,446.584595 247.796631,441.410797 
	C249.848083,443.164246 251.491730,444.569122 253.417542,446.144318 
	C263.399017,460.372375 276.890991,468.067657 294.041687,470.641235 
	C294.041687,468.353790 294.041504,466.531982 294.041718,464.710175 
	C294.045929,425.885193 293.982880,387.059906 294.169800,348.235809 
	C294.186523,344.769775 295.109253,340.901886 296.819458,337.911682 
	C319.252258,298.689880 341.911621,259.597748 364.488922,220.458496 
	C367.920715,214.509216 371.225098,208.486404 374.971588,201.815338 
	C366.159119,201.815338 358.360291,201.831772 350.561523,201.812103 
	C330.742737,201.762115 315.504272,210.518997 303.910309,226.168289 
	C301.358337,229.612885 300.466431,233.137772 301.912750,237.748413 
	C308.952942,260.191559 307.610382,282.658173 300.980988,304.974152 
	C293.446503,330.336823 280.177277,352.729645 265.033539,374.142395 
	C262.730713,377.398560 259.724121,378.926300 256.032684,376.740906 
	C252.406403,374.594116 252.266632,371.329895 253.742844,367.595520 
	C261.030762,349.159302 267.416504,330.418121 270.527740,310.775330 
	C273.334808,293.052917 273.669342,275.391052 268.180267,257.932251 
	C264.929413,247.592422 259.353882,238.674896 252.918625,229.833191 
	C252.418884,229.235504 251.967163,228.933182 251.494751,228.633179 
	C251.474060,228.635483 251.438751,228.614441 251.450150,228.264160 
	C249.033859,225.032150 246.530045,222.209747 244.215363,219.239960 
	C243.268478,218.025131 242.730637,216.491470 242.006714,215.102859 
	C242.352356,215.035217 242.697998,214.967590 243.043640,214.899963 
	C246.356110,217.020935 249.668594,219.141907 252.981064,221.262878 
	C269.300201,236.572723 277.051514,255.851410 278.751709,277.768890 
	C280.850372,304.823181 274.280823,330.454193 265.386017,355.655762 
	C264.778503,357.376953 264.183655,359.102631 263.303833,361.429382 
	C262.927185,362.680939 262.829651,363.329346 262.732086,363.977722 
	C263.350983,363.540466 263.969879,363.103241 264.588806,362.666016 
z"/>
<path fill="#25F3F6" opacity="1.000000" stroke="none" 
	d="
M168.853989,281.049408 
	C146.905151,270.775452 127.409912,257.491302 114.601318,235.684189 
	C116.733299,236.844818 118.865280,238.005432 121.512672,239.493607 
	C122.590607,239.801956 123.153130,239.782761 123.715652,239.763565 
	C123.491219,239.300583 123.266792,238.837616 123.042366,238.374634 
	C106.929497,221.567871 100.123917,200.655273 96.588737,178.312164 
	C96.497627,177.736343 96.857727,177.089127 97.195724,175.702728 
	C98.733612,179.244125 99.837097,182.123749 101.214622,184.865692 
	C102.704048,187.830353 104.310020,190.757507 106.123268,193.532364 
	C107.845612,196.168106 109.733719,198.739716 111.857567,201.056625 
	C114.024254,203.420288 116.566765,205.439438 119.711723,207.059296 
	C109.800499,193.315720 103.354599,178.341248 101.199547,161.746582 
	C99.031822,145.054382 100.919075,129.062561 112.022697,114.775360 
	C112.022697,116.234123 112.273735,117.744774 111.984550,119.143753 
	C108.391281,136.526627 115.770103,149.171463 130.005692,157.819809 
	C140.033371,163.911758 151.039352,168.393372 162.071655,174.093597 
	C165.341568,176.185181 168.148346,177.777161 170.955124,179.369141 
	C170.742218,179.789352 170.529312,180.209549 170.316406,180.629745 
	C167.256409,180.478058 164.196426,180.326370 160.731934,180.137909 
	C140.346741,172.104385 120.009132,164.650223 107.167297,145.082809 
	C107.355194,152.960114 107.665268,160.608322 109.352188,167.939743 
	C112.673073,182.372375 118.073875,195.969116 130.136093,205.601685 
	C133.567871,208.342194 135.741760,211.248077 133.641724,215.307709 
	C131.452393,219.539948 127.619118,219.285156 123.703644,217.493546 
	C120.691376,216.115204 117.612282,214.882889 113.824173,213.271378 
	C119.263268,224.087708 125.448090,232.834061 135.070496,238.617859 
	C141.911804,242.730011 142.325378,246.675629 135.544617,252.830841 
	C145.462143,259.335297 155.140442,265.682861 164.793549,272.221375 
	C165.234344,272.573975 165.700378,272.735657 166.134766,272.905212 
	C166.103119,272.913086 166.138000,272.857513 166.237274,273.180603 
	C169.245590,275.805511 172.154663,278.107300 175.063721,280.409088 
	C174.840332,280.727814 174.616943,281.046539 174.393555,281.365265 
	C172.547043,281.259979 170.700516,281.154694 168.853989,281.049408 
z"/>
<path fill="#DB1BF3" opacity="1.000000" stroke="none" 
	d="
M253.135376,445.973999 
	C251.491730,444.569122 249.848083,443.164246 247.796631,441.410797 
	C245.798416,446.584595 251.550735,449.325165 251.634933,453.979034 
	C242.025208,443.387207 237.502304,430.390930 237.262329,416.091766 
	C236.919586,395.669525 237.006760,375.233368 237.341812,354.810211 
	C237.452301,348.075745 236.482468,342.062134 232.357849,336.615753 
	C230.770966,334.520355 229.704559,332.030792 228.480591,329.126404 
	C228.380997,326.015137 228.201797,323.498352 228.013580,320.989166 
	C228.004532,320.996796 227.992752,321.015686 228.288116,321.165619 
	C229.423538,321.525269 230.263611,321.735016 231.076309,321.954681 
	C231.048935,321.964630 231.044037,321.906708 231.055450,322.234131 
	C231.497986,323.004425 231.929077,323.447266 232.278961,323.873291 
	C232.197739,323.856445 232.253189,323.700104 232.187866,323.927979 
	C232.447235,324.469727 232.771912,324.783539 233.361832,325.294250 
	C235.440826,328.651825 237.009048,331.988617 239.122314,334.934418 
	C242.873520,340.163513 244.041626,345.784302 243.933334,352.201202 
	C243.619644,370.789642 244.142853,389.393829 243.733734,407.978516 
	C243.433533,421.615692 245.978439,434.302612 253.135376,445.973999 
z"/>
<path fill="#64BDF8" opacity="1.000000" stroke="none" 
	d="
M169.068604,281.323669 
	C170.700516,281.154694 172.547043,281.259979 174.393555,281.365265 
	C174.616943,281.046539 174.840332,280.727814 175.063721,280.409088 
	C172.154663,278.107300 169.245590,275.805511 166.591736,273.235046 
	C181.498779,280.075745 195.554138,288.131104 207.772583,299.133179 
	C206.504013,300.889954 205.383179,302.378876 204.262360,303.867828 
	C192.602661,296.444519 180.942947,289.021210 169.068604,281.323669 
z"/>
<path fill="#A56CF9" opacity="1.000000" stroke="none" 
	d="
M199.039627,188.365189 
	C210.903290,194.339447 222.766937,200.313690 234.609375,206.715378 
	C233.163712,206.946823 231.739288,206.750839 229.799240,206.483917 
	C231.404449,209.287186 232.636154,211.438156 233.579529,213.480774 
	C220.937683,206.900986 208.584167,200.429550 196.545380,193.814636 
	C198.831909,193.463455 200.803711,193.255753 203.208954,193.002380 
	C201.536667,191.142441 200.288147,189.753815 199.039627,188.365189 
z"/>
<path fill="#64BDF8" opacity="1.000000" stroke="none" 
	d="
M198.779022,188.189880 
	C200.288147,189.753815 201.536667,191.142441 203.208954,193.002380 
	C200.803711,193.255753 198.831909,193.463455 196.164642,193.770691 
	C184.024918,189.305038 172.580688,184.739853 161.136444,180.174667 
	C164.196426,180.326370 167.256409,180.478058 170.316406,180.629745 
	C170.529312,180.209549 170.742218,179.789352 170.955124,179.369141 
	C168.148346,177.777161 165.341568,176.185181 162.357513,174.309906 
	C172.611130,177.984299 183.042023,181.942017 193.869904,186.340515 
	C195.478363,187.153320 196.689835,187.525345 197.901291,187.897385 
	C198.106995,187.936447 198.312714,187.975510 198.779022,188.189880 
z"/>
<path fill="#A56CF9" opacity="1.000000" stroke="none" 
	d="
M204.488312,304.104797 
	C205.383179,302.378876 206.504013,300.889954 208.100586,299.260376 
	C216.085449,306.728027 223.594559,314.336395 231.103683,321.944733 
	C230.263611,321.735016 229.423538,321.525269 228.169739,320.968933 
	C227.389725,320.425232 227.023422,320.228180 226.657104,320.031128 
	C226.665085,320.173096 226.627121,320.412506 226.688370,320.441437 
	C227.121704,320.645660 227.575394,320.806702 228.022614,320.981537 
	C228.201797,323.498352 228.380997,326.015137 228.389664,328.800659 
	C220.384171,320.826843 212.549225,312.584320 204.488312,304.104797 
z"/>
<path fill="#DB1BF3" opacity="1.000000" stroke="none" 
	d="
M233.867859,213.589127 
	C232.636154,211.438156 231.404449,209.287186 229.799240,206.483917 
	C231.739288,206.750839 233.163712,206.946823 234.807770,206.975311 
	C240.911163,211.418335 246.794952,216.028854 252.829895,220.951126 
	C249.668594,219.141907 246.356110,217.020935 243.043640,214.899963 
	C242.697998,214.967590 242.352356,215.035217 242.006714,215.102859 
	C242.730637,216.491470 243.268478,218.025131 244.215363,219.239960 
	C246.530045,222.209747 249.033859,225.032150 251.162659,228.090240 
	C246.211517,224.077820 241.559265,219.889038 236.836975,215.412689 
	C236.121185,214.761627 235.475418,214.398132 234.559875,213.986603 
	C234.149353,213.822083 234.008606,213.705612 233.867859,213.589127 
z"/>
<path fill="#A56CF9" opacity="1.000000" stroke="none" 
	d="
M197.705780,187.670898 
	C196.689835,187.525345 195.478363,187.153320 194.191452,186.523560 
	C195.247421,186.658676 196.378845,187.051559 197.705780,187.670898 
z"/>
<path fill="#DB1BF3" opacity="1.000000" stroke="none" 
	d="
M253.189423,456.255371 
	C254.106949,456.877808 255.127594,457.787262 255.990479,458.903809 
	C254.985977,458.254761 254.139252,457.398560 253.189423,456.255371 
z"/>
<path fill="#DB1BF3" opacity="1.000000" stroke="none" 
	d="
M251.685883,454.619934 
	C252.032394,454.684509 252.470459,455.014130 252.969543,455.628296 
	C252.612869,455.570251 252.195145,455.227631 251.685883,454.619934 
z"/>
<path fill="#010002" opacity="1.000000" stroke="none" 
	d="
M236.906998,215.700256 
	C241.559265,219.889038 246.211517,224.077820 251.151260,228.440521 
	C251.438751,228.614441 251.474060,228.635483 251.634918,228.863892 
	C252.186066,229.437714 252.576370,229.783142 252.966660,230.128555 
	C259.353882,238.674896 264.929413,247.592422 268.180267,257.932251 
	C273.669342,275.391052 273.334808,293.052917 270.527740,310.775330 
	C267.416504,330.418121 261.030762,349.159302 253.742844,367.595520 
	C252.266632,371.329895 252.406403,374.594116 256.032684,376.740906 
	C259.724121,378.926300 262.730713,377.398560 265.033539,374.142395 
	C280.177277,352.729645 293.446503,330.336823 300.980988,304.974152 
	C307.610382,282.658173 308.952942,260.191559 301.912750,237.748413 
	C300.466431,233.137772 301.358337,229.612885 303.910309,226.168289 
	C315.504272,210.518997 330.742737,201.762115 350.561523,201.812103 
	C358.360291,201.831772 366.159119,201.815338 374.971588,201.815338 
	C371.225098,208.486404 367.920715,214.509216 364.488922,220.458496 
	C341.911621,259.597748 319.252258,298.689880 296.819458,337.911682 
	C295.109253,340.901886 294.186523,344.769775 294.169800,348.235809 
	C293.982880,387.059906 294.045929,425.885193 294.041718,464.710175 
	C294.041504,466.531982 294.041687,468.353790 294.041687,470.641235 
	C276.890991,468.067657 263.399017,460.372375 253.417526,446.144318 
	C245.978439,434.302612 243.433533,421.615692 243.733734,407.978516 
	C244.142853,389.393829 243.619644,370.789642 243.933334,352.201202 
	C244.041626,345.784302 242.873520,340.163513 239.122314,334.934418 
	C237.009048,331.988617 235.440826,328.651825 233.304108,325.012207 
	C232.738495,324.255524 232.495834,323.977814 232.253174,323.700104 
	C232.253189,323.700104 232.197739,323.856445 232.231720,323.559296 
	C231.858475,322.810333 231.451248,322.358521 231.044037,321.906708 
	C231.044037,321.906708 231.048935,321.964630 231.076309,321.954681 
	C223.594559,314.336395 216.085449,306.728027 208.248322,298.992523 
	C195.554138,288.131104 181.498779,280.075745 166.492462,272.911926 
	C166.138000,272.857513 166.103119,272.913086 166.004120,272.642090 
	C165.542984,272.257568 165.180862,272.144012 164.818756,272.030426 
	C155.140442,265.682861 145.462143,259.335297 135.544617,252.830841 
	C142.325378,246.675629 141.911804,242.730011 135.070496,238.617859 
	C125.448090,232.834061 119.263268,224.087708 113.824173,213.271378 
	C117.612282,214.882889 120.691376,216.115204 123.703644,217.493546 
	C127.619118,219.285156 131.452393,219.539948 133.641724,215.307709 
	C135.741760,211.248077 133.567871,208.342194 130.136093,205.601685 
	C118.073875,195.969116 112.673073,182.372375 109.352188,167.939743 
	C107.665268,160.608322 107.355194,152.960114 107.167297,145.082809 
	C120.009132,164.650223 140.346741,172.104385 160.731934,180.137909 
	C172.580688,184.739853 184.024918,189.305038 195.849915,193.914169 
	C208.584167,200.429550 220.937683,206.900986 233.579529,213.480774 
	C234.008606,213.705612 234.149353,213.822083 234.701126,214.224213 
	C235.710449,214.906677 236.308716,215.303467 236.906998,215.700256 
z"/>
<path fill="#000000" opacity="1.000000" stroke="none" 
	d="
M264.294617,362.376587 
	C263.969879,363.103241 263.350983,363.540466 262.732086,363.977722 
	C262.829651,363.329346 262.927185,362.680939 263.205750,361.783844 
	C263.591339,361.719147 263.795868,361.903168 264.294617,362.376587 
z"/>
<path fill="#DB1BF3" opacity="1.000000" stroke="none" 
	d="
M252.918625,229.833191 
	C252.576370,229.783142 252.186066,229.437714 251.655609,228.861572 
	C251.967163,228.933182 252.418884,229.235504 252.918625,229.833191 
z"/>
<path fill="#64BDF8" opacity="1.000000" stroke="none" 
	d="
M164.793549,272.221375 
	C165.180862,272.144012 165.542984,272.257568 166.035751,272.634247 
	C165.700378,272.735657 165.234344,272.573975 164.793549,272.221375 
z"/>
<path fill="#000000" opacity="1.000000" stroke="none" 
	d="
M122.696823,238.606323 
	C123.266792,238.837616 123.491219,239.300583 123.715652,239.763565 
	C123.153130,239.782761 122.590607,239.801956 121.854248,239.575684 
	C121.904037,239.166138 122.127655,239.002075 122.696823,238.606323 
z"/>
<path fill="#A56CF9" opacity="1.000000" stroke="none" 
	d="
M231.055450,322.234131 
	C231.451248,322.358521 231.858475,322.810333 232.312943,323.576111 
	C231.929077,323.447266 231.497986,323.004425 231.055450,322.234131 
z"/>
<path fill="#A56CF9" opacity="1.000000" stroke="none" 
	d="
M232.187866,323.927979 
	C232.495834,323.977814 232.738495,324.255524 233.038864,324.815308 
	C232.771912,324.783539 232.447235,324.469727 232.187866,323.927979 
z"/>
<path fill="#DB1BF3" opacity="1.000000" stroke="none" 
	d="
M228.013565,320.989166 
	C227.575394,320.806702 227.121704,320.645660 226.688370,320.441437 
	C226.627121,320.412506 226.665085,320.173096 226.657104,320.031128 
	C227.023422,320.228180 227.389725,320.425232 227.874390,320.818970 
	C227.992752,321.015686 228.004532,320.996796 228.013565,320.989166 
z"/>
<path fill="#A56CF9" opacity="1.000000" stroke="none" 
	d="
M236.836975,215.412689 
	C236.308716,215.303467 235.710449,214.906677 234.970917,214.272278 
	C235.475418,214.398132 236.121185,214.761627 236.836975,215.412689 
z"/>
</svg>