<svg width="56" height="55" viewBox="0 0 56 55" fill="none" xmlns="http://www.w3.org/2000/svg">
<g clip-path="url(#clip0)">
<path d="M32 24.784C31.5343 24.9601 31.0202 24.9598 30.5547 24.7829C30.0892 24.6061 29.7046 24.265 29.4733 23.824L24.8733 17.4627L24.2067 16.5733L18.8693 23.832C18.652 24.2545 18.2882 24.5833 17.846 24.7571C17.4038 24.9308 16.9135 24.9375 16.4667 24.776L23.344 15.5493L16.9467 7.21466C17.4067 7.0489 17.9097 7.0467 18.3712 7.20844C18.8326 7.37018 19.2242 7.68598 19.48 8.10266L24.248 14.5427L29.0427 8.12933C29.2617 7.71438 29.6256 7.39438 30.0651 7.23017C30.5047 7.06596 30.9892 7.06898 31.4267 7.23866L28.944 10.5333L25.5813 14.9107C25.488 14.994 25.4132 15.0961 25.3621 15.2103C25.3109 15.3245 25.2845 15.4482 25.2845 15.5733C25.2845 15.6985 25.3109 15.8222 25.3621 15.9364C25.4132 16.0506 25.488 16.1527 25.5813 16.236L31.9867 24.7853L32 24.784ZM0.00265214 15.4347L0.562652 12.668C2.10131 7.19733 8.37331 4.92133 12.688 8.308C15.2147 10.2933 15.8453 13.104 15.7213 16.272H1.48798C1.25731 21.9293 5.33999 25.3453 10.56 23.6C11.4062 23.2954 12.1637 22.7857 12.7645 22.1164C13.3653 21.4472 13.7907 20.6394 14.0027 19.7653C14.2787 18.8773 14.7333 18.7253 15.568 18.9813C15.4289 20.0645 15.046 21.102 14.4481 22.0159C13.8502 22.9297 13.0528 23.6961 12.116 24.2573C10.5686 25.1038 8.79308 25.4393 7.04348 25.2158C5.29388 24.9924 3.65971 24.2215 2.37465 23.0133C1.10402 21.5832 0.336087 19.7767 0.187986 17.8693C0.187986 17.556 0.0813188 17.2627 0.00931881 16.9813C0.00282818 16.4662 -0.000282994 15.9511 -1.45225e-05 15.436L0.00265214 15.4347ZM1.50531 15.0533H14.3773C14.2973 10.952 11.7093 8.04266 8.25731 8.016C4.41465 7.96266 1.66531 10.808 1.49598 15.0347L1.50531 15.0533Z" fill="white"/>
<path d="M49.9148 30L49.1638 29.751C49.1638 29.751 49.2638 25.951 47.8888 25.684C46.9888 24.636 48.0218 -19.057 51.3118 25.535C50.6876 25.8516 50.2099 26.3973 49.9788 27.058C49.8549 28.0337 49.8334 29.0198 49.9148 30Z" fill="url(#paint0_linear)"/>
<path d="M50.3208 26.329C52.3204 24.8238 53.8517 22.782 54.7368 20.4409C55.6219 18.0998 55.8244 15.5556 55.3208 13.104C53.8508 6.619 50.3698 4.487 49.9948 3.673C49.6712 3.16613 49.3951 2.63053 49.1698 2.073L49.4468 20.142C49.4468 20.142 48.8728 25.664 50.3208 26.329Z" fill="url(#paint1_linear)"/>
<path d="M48.7818 26.569C48.7818 26.569 42.6608 22.4 43.0148 15.025C43.0478 12.8016 43.5576 10.6113 44.5097 8.60182C45.4618 6.59237 46.8341 4.81065 48.5338 3.377C48.7324 3.20825 48.8902 2.99668 48.9954 2.75818C49.1005 2.51969 49.1502 2.26047 49.1408 2C49.5218 2.82 49.4598 14.243 49.4998 15.579C49.6548 20.776 49.2108 25.588 48.7818 26.569Z" fill="url(#paint2_linear)"/>
<path d="M20 49.5995L20.17 49.3625L28.19 34.1485L28.207 33.9875L24.672 27.3475C24.6073 27.226 24.506 27.128 24.3826 27.0673C24.2591 27.0066 24.1196 26.9863 23.984 27.0091C23.8483 27.032 23.7232 27.097 23.6265 27.1949C23.5298 27.2927 23.4663 27.4185 23.445 27.5545L20 49.5995Z" fill="#FFC24A"/>
<path d="M20.1 49.4195L20.228 49.1695L28.165 34.1135L24.639 27.4475C24.5808 27.3315 24.4867 27.2376 24.3707 27.1796C24.2546 27.1217 24.1229 27.1029 23.9953 27.1261C23.8677 27.1493 23.7511 27.2133 23.6629 27.3083C23.5747 27.4034 23.5196 27.5245 23.506 27.6535L20.1 49.4195Z" fill="#FFA712"/>
<path d="M30.784 39.0095L33.416 36.3095L30.783 31.2885C30.725 31.1804 30.6389 31.0901 30.5337 31.0271C30.4284 30.9641 30.3081 30.9309 30.1855 30.9309C30.0629 30.9309 29.9426 30.9641 29.8373 31.0271C29.7321 31.0901 29.646 31.1804 29.588 31.2885L28.181 33.9705V34.1995L30.784 39.0095Z" fill="#F4BD62"/>
<path d="M30.737 38.8995L33.296 36.2795L30.737 31.3995C30.6951 31.2938 30.6236 31.2026 30.531 31.1367C30.4384 31.0708 30.3287 31.0331 30.2152 31.0281C30.1017 31.0231 29.9892 31.0511 29.8912 31.1087C29.7932 31.1662 29.714 31.2509 29.663 31.3525L28.249 34.0815L28.207 34.2205L30.737 38.8995Z" fill="#FFA50E"/>
<path d="M20.002 49.6005L20.079 49.5225L20.358 49.4095L30.618 39.1875L30.748 38.8335L28.189 33.9555L20.002 49.6005Z" fill="#F6820C"/>
<path d="M31.112 54.7555L40.4 49.5765L37.746 33.2455C37.727 33.1303 37.6766 33.0227 37.6004 32.9343C37.5242 32.8459 37.4251 32.7803 37.314 32.7445C37.203 32.7088 37.0842 32.7043 36.9708 32.7316C36.8573 32.759 36.7536 32.817 36.671 32.8995L20 49.5995L29.233 54.7545C29.52 54.9146 29.8433 54.9987 30.172 54.9987C30.5007 54.9987 30.824 54.9146 31.111 54.7545" fill="#FDE068"/>
<path d="M40.315 49.5335L37.683 33.3255C37.6783 33.2153 37.6411 33.1091 37.5761 33.0201C37.511 32.9312 37.421 32.8635 37.3175 32.8257C37.214 32.7879 37.1015 32.7817 36.9945 32.8078C36.8874 32.8339 36.7905 32.8912 36.716 32.9725L20.1 49.5685L29.231 54.6685C29.5158 54.8273 29.8364 54.9107 30.1625 54.9107C30.4886 54.9107 30.8092 54.8273 31.094 54.6685L40.315 49.5335Z" fill="#FCCA3F"/>
<path d="M31.112 54.5995C30.825 54.7596 30.5017 54.8437 30.173 54.8437C29.8443 54.8437 29.521 54.7596 29.234 54.5995L20.076 49.5215L20 49.5995L29.233 54.7545C29.52 54.9146 29.8433 54.9987 30.172 54.9987C30.5007 54.9987 30.824 54.9146 31.111 54.7545L40.4 49.5765L40.377 49.4365L31.112 54.5995Z" fill="#EEAB37"/>
</g>
<defs>
<linearGradient id="paint0_linear" x1="44.8664" y1="16.2523" x2="53.4981" y2="19.1814" gradientUnits="userSpaceOnUse">
<stop offset="0.231" stop-color="#999875"/>
<stop offset="0.563" stop-color="#9B9977"/>
<stop offset="0.683" stop-color="#A09F7E"/>
<stop offset="0.768" stop-color="#A9A889"/>
<stop offset="0.837" stop-color="#B7B69A"/>
<stop offset="0.896" stop-color="#C9C7B0"/>
<stop offset="0.948" stop-color="#DEDDCB"/>
<stop offset="0.994" stop-color="#F8F6EB"/>
<stop offset="1" stop-color="#FBF9EF"/>
</linearGradient>
<linearGradient id="paint1_linear" x1="48.0317" y1="1.94388" x2="51.8478" y2="25.7728" gradientUnits="userSpaceOnUse">
<stop stop-color="#48A547"/>
<stop offset="1" stop-color="#3F9143"/>
</linearGradient>
<linearGradient id="paint2_linear" x1="42.4883" y1="15.755" x2="52.7289" y2="12.3254" gradientUnits="userSpaceOnUse">
<stop stop-color="#41A247"/>
<stop offset="0.352" stop-color="#4BA74B"/>
<stop offset="0.956" stop-color="#67B554"/>
<stop offset="1" stop-color="#69B655"/>
</linearGradient>
<clipPath id="clip0">
<rect width="56" height="55" fill="white"/>
</clipPath>
</defs>
</svg>
