<svg width="73" height="25" viewBox="0 0 73 25" fill="none"
    xmlns="http://www.w3.org/2000/svg">
    <path d="M49.8551 0.00160461C49.7874 -0.00422019 49.7192 0.00586579 49.6564 0.0310042C49.5935 0.0561427 49.5379 0.0955894 49.4942 0.145988C48.0571 1.79237 47.6124 6.2537 48.3535 8.48904C48.6042 9.22846 48.6618 10.0164 48.5211 10.7825C48.3782 11.5408 48.2322 12.457 48.2322 13.0906C48.2322 19.6273 53.7111 24.93 60.4661 24.93C67.2221 24.93 72.6978 19.6304 72.6978 13.0896C72.6978 12.4528 72.555 11.5387 72.4078 10.7815C72.2677 10.0156 72.3256 9.22805 72.5765 8.48904C73.3176 6.25578 72.8729 1.79237 71.4358 0.145988C71.3912 0.0963211 71.3353 0.0574387 71.2724 0.0324593C71.2095 0.00747982 71.1415 -0.00290142 71.0737 0.0021482C71.0059 0.00719783 70.9403 0.0275378 70.8821 0.0615366C70.824 0.0955354 70.7748 0.142247 70.7387 0.197924L68.9675 2.88823C68.7565 3.14743 68.4525 3.3206 68.1158 3.3735C67.7791 3.42639 67.4341 3.35515 67.1491 3.17388C65.1629 1.91549 62.8394 1.24677 60.465 1.25015C57.9978 1.25015 55.7014 1.95857 53.7809 3.17388C53.4956 3.35457 53.1507 3.42536 52.8141 3.37229C52.4775 3.31922 52.1737 3.14615 51.9625 2.88719L50.1902 0.197924C50.1538 0.142409 50.1046 0.0957961 50.0465 0.0617369C49.9884 0.0276776 49.9229 0.00709631 49.8551 0.00160461V0.00160461ZM60.465 3.95292C62.977 3.95704 65.3848 4.92417 67.1606 6.6423C68.9364 8.36043 69.9354 10.6894 69.9385 13.1186C69.9342 18.171 65.6862 22.2833 60.465 22.2833C55.2438 22.2833 50.9958 18.171 50.9958 13.1176C50.9972 11.3822 51.5073 9.68272 52.467 8.21632C53.4267 6.74992 54.7966 5.57669 56.4178 4.83272C57.682 4.25094 59.0649 3.95031 60.465 3.95292V3.95292ZM57.8507 9.07073C57.8029 9.0709 57.7561 9.08318 57.7148 9.10632C57.6736 9.12947 57.6393 9.16268 57.6154 9.20264C57.5917 9.24312 57.5794 9.28896 57.58 9.3355C57.5806 9.38204 57.5939 9.4276 57.6187 9.46752L59.6036 12.699L56.9377 16.6327C56.911 16.6726 56.8959 16.7187 56.8938 16.7661C56.8917 16.8136 56.9028 16.8608 56.9259 16.9027C56.9488 16.9446 56.9832 16.9797 57.0252 17.0043C57.0672 17.0288 57.1153 17.0418 57.1643 17.0419H59.1611C59.2065 17.0415 59.2511 17.0303 59.291 17.0093C59.3309 16.9883 59.3648 16.9581 59.3898 16.9214L60.8302 14.7422L62.1212 16.909C62.1448 16.9495 62.1791 16.9832 62.2207 17.0065C62.2622 17.0299 62.3095 17.0421 62.3576 17.0419H64.3253C64.3733 17.0424 64.4205 17.0303 64.4619 17.0069C64.5033 16.9835 64.5374 16.9496 64.5605 16.909C64.588 16.8701 64.6032 16.8245 64.6043 16.7774C64.6055 16.7304 64.5925 16.6841 64.567 16.6441L62.147 12.5847L60.0708 9.19953C60.0467 9.15978 60.0121 9.12692 59.9706 9.10429C59.9291 9.08167 59.8822 9.07009 59.8345 9.07073H57.8507Z" fill="#00D8FF"/>
    <path d="M1.24881 18.4743L12.6988 0.821541L13.7268 1.34935L2.27681 19.0021L1.24881 18.4743Z" fill="#E10098"/>
    <path d="M1.01181 17.0635H23.9138V18.1201H1.01181V17.0635Z" fill="#E10098"/>
    <path d="M1.46478 17.6572L2.05878 16.7422L13.5138 22.6283L12.9198 23.5433L1.46478 17.6572Z" fill="#E10098"/>
    <path d="M11.4168 2.31419L12.0108 1.39919L23.4658 7.28612L22.8718 8.20111L11.4168 2.31419Z" fill="#E10098"/>
    <path d="M1.4678 7.28345L12.9228 1.39652L13.5168 2.31152L2.0618 8.19844L1.4678 7.28345Z" fill="#E10098"/>
    <path d="M11.2098 1.35024L12.2378 0.821541L23.6878 18.4743L22.6608 19.0021L11.2098 1.35024Z" fill="#E10098"/>
    <path d="M1.92081 6.58208H3.10781V18.3559H1.92081V6.58208Z" fill="#E10098"/>
    <path d="M21.8268 6.58208H23.0138V18.3559H21.8268V6.58208Z" fill="#E10098"/>
    <path d="M12.1998 22.2972L22.1628 17.1775L22.6818 17.9768L12.7188 23.0964L12.1998 22.2972Z" fill="#E10098"/>
    <path d="M24.5868 18.6995C24.34 19.0811 23.9716 19.389 23.5282 19.5842C23.0848 19.7794 22.5863 19.8531 22.0957 19.796C21.6052 19.7389 21.1448 19.5535 20.7727 19.2634C20.4006 18.9733 20.1335 18.5914 20.0054 18.1661C19.8772 17.7408 19.8936 17.2913 20.0527 16.8743C20.2117 16.4574 20.5061 16.0918 20.8986 15.8239C21.2912 15.5559 21.7642 15.3977 22.2579 15.3691C22.7515 15.3405 23.2436 15.443 23.6718 15.6635C24.2449 15.9585 24.6631 16.4439 24.8346 17.0131C25.0062 17.5822 24.917 18.1887 24.5868 18.6995" fill="#E10098"/>
    <path d="M4.6668 8.46369C4.42006 8.84531 4.05165 9.1532 3.60822 9.34839C3.16479 9.54357 2.66627 9.61728 2.17576 9.56017C1.68525 9.50306 1.2248 9.31771 0.852687 9.02758C0.480576 8.73745 0.213536 8.35558 0.0853671 7.93031C-0.0428022 7.50503 -0.0263388 7.05547 0.132673 6.63853C0.291686 6.22159 0.586098 5.85601 0.978645 5.58806C1.37119 5.32011 1.84423 5.16185 2.33788 5.13329C2.83153 5.10474 3.3236 5.20718 3.7518 5.42766C4.3249 5.72273 4.7431 6.20809 4.91463 6.77727C5.08617 7.34644 4.99704 7.95293 4.6668 8.46369Z" fill="#E10098"/>
    <path d="M0.346784 18.6995C0.0990817 18.3184 -0.0160135 17.8804 0.0160667 17.441C0.0481469 17.0016 0.22596 16.5806 0.527 16.2312C0.82804 15.8818 1.23877 15.6197 1.70721 15.4782C2.17565 15.3367 2.68073 15.322 3.15853 15.4361C3.63633 15.5502 4.06536 15.7879 4.39132 16.1191C4.71729 16.4503 4.92553 16.8601 4.98969 17.2967C5.05385 17.7333 4.97104 18.177 4.75175 18.5717C4.53246 18.9664 4.18654 19.2943 3.75778 19.5139C3.18395 19.8078 2.50255 19.8872 1.86308 19.7345C1.22361 19.5818 0.6783 19.2096 0.346784 18.6995" fill="#E10098"/>
    <path d="M20.2668 8.46368C20.0191 8.08255 19.904 7.64457 19.9361 7.20519C19.9682 6.76581 20.146 6.34477 20.447 5.99538C20.7481 5.64598 21.1588 5.38393 21.6272 5.2424C22.0957 5.10087 22.6007 5.08622 23.0785 5.2003C23.5563 5.31438 23.9854 5.55206 24.3113 5.88326C24.6373 6.21447 24.8455 6.6243 24.9097 7.06089C24.9739 7.49748 24.8911 7.9412 24.6718 8.33589C24.4525 8.73057 24.1066 9.05848 23.6778 9.2781C23.104 9.57203 22.4226 9.65136 21.7831 9.49868C21.1436 9.346 20.5983 8.97378 20.2668 8.46368" fill="#E10098"/>
    <path d="M12.4668 24.93C11.9723 24.93 11.489 24.7995 11.0779 24.555C10.6667 24.3105 10.3463 23.963 10.1571 23.5564C9.96788 23.1498 9.91837 22.7023 10.0148 22.2707C10.1113 21.8391 10.3494 21.4426 10.699 21.1314C11.0487 20.8202 11.4941 20.6083 11.9791 20.5224C12.464 20.4365 12.9667 20.4806 13.4235 20.649C13.8803 20.8174 14.2708 21.1026 14.5455 21.4686C14.8202 21.8345 14.9668 22.2647 14.9668 22.7048C14.9677 22.9973 14.9037 23.287 14.7784 23.5573C14.6531 23.8277 14.469 24.0733 14.2366 24.2801C14.0043 24.4869 13.7283 24.6508 13.4246 24.7623C13.1209 24.8738 12.7954 24.9308 12.4668 24.93" fill="#E10098"/>
    <path d="M12.4668 4.45035C11.9723 4.45035 11.489 4.31985 11.0779 4.07534C10.6667 3.83084 10.3463 3.48331 10.1571 3.07672C9.96788 2.67012 9.91837 2.22271 10.0148 1.79107C10.1113 1.35943 10.3494 0.962937 10.699 0.65174C11.0487 0.340544 11.4941 0.128616 11.9791 0.0427572C12.464 -0.0431018 12.9667 0.000964134 13.4235 0.169382C13.8803 0.337801 14.2708 0.623007 14.5455 0.988936C14.8202 1.35486 14.9668 1.78508 14.9668 2.22518C14.9677 2.51762 14.9037 2.80735 14.7784 3.07769C14.6531 3.34803 14.469 3.59366 14.2366 3.80045C14.0043 4.00724 13.7283 4.17111 13.4246 4.28265C13.1209 4.39418 12.7954 4.45118 12.4668 4.45035" fill="#E10098"/>
    <path d="M35.6445 3H37.1053C37.2351 3 37.3 3.06492 37.3 3.19477V20.3341C37.3 20.464 37.2351 20.5289 37.1053 20.5289H35.6445C35.5147 20.5289 35.4498 20.464 35.4498 20.3341V3.19477C35.4498 3.06492 35.5147 3 35.6445 3Z" fill="#5B5A72"/>
    <path d="M28.1948 10.8393H44.5551C44.6849 10.8393 44.7498 10.9042 44.7498 11.0341V12.4948C44.7498 12.6247 44.6849 12.6896 44.5551 12.6896H28.1948C28.0649 12.6896 28 12.6247 28 12.4948V11.0341C28 10.9042 28.0649 10.8393 28.1948 10.8393Z" fill="#5B5A72"/>
</svg>
