<svg width="61" height="32" viewBox="0 0 61 32" fill="none" xmlns="http://www.w3.org/2000/svg">
<path d="M5.90201 27.201L3.65601 2H28.344L26.095 27.197L15.985 30L5.90201 27.201Z" fill="#1572B6"/>
<path d="M16 27.858L24.17 25.593L26.092 4.061H16V27.858Z" fill="#33A9DC"/>
<path d="M16 13.191H20.09L20.372 10.026H16V6.935H23.75L23.676 7.764L22.917 16.282H16V13.191V13.191Z" fill="white"/>
<path d="M16.019 21.218L16.005 21.222L12.563 20.292L12.343 17.827H9.24001L9.67301 22.68L16.004 24.438L16.019 24.434V21.218V21.218Z" fill="#EBEBEB"/>
<path d="M19.827 16.151L19.455 20.29L16.008 21.22V24.436L22.344 22.68L22.391 22.158L22.928 16.151H19.827V16.151Z" fill="white"/>
<path d="M16.011 6.935V10.026H8.54501L8.48301 9.331L8.34201 7.764L8.26801 6.935H16.011V6.935Z" fill="#EBEBEB"/>
<path d="M16 13.191V16.282H12.601L12.539 15.587L12.399 14.02L12.325 13.191H16V13.191Z" fill="#EBEBEB"/>
<path d="M34 2H61V28H34V2Z" fill="#F7DF1E"/>
<path d="M41.0993 23.7275L43.1655 22.5233C43.5641 23.2039 43.9267 23.7798 44.7965 23.7798C45.6303 23.7798 46.156 23.4657 46.156 22.2441V13.9365H48.6933V22.2787C48.6933 24.8093 47.1528 25.9612 44.9053 25.9612C42.8755 25.9612 41.6973 24.949 41.0992 23.7273" fill="black"/>
<path d="M50.0714 23.4656L52.1374 22.3138C52.6813 23.1691 53.3881 23.7973 54.6386 23.7973C55.69 23.7973 56.3603 23.2912 56.3603 22.593C56.3603 21.7553 55.6716 21.4586 54.5117 20.97L53.8775 20.708C52.0469 19.9578 50.8326 19.0153 50.8326 17.0257C50.8326 15.1931 52.2825 13.7968 54.5481 13.7968C56.1611 13.7968 57.321 14.3379 58.1547 15.7516L56.179 16.9734C55.744 16.2229 55.2729 15.9263 54.548 15.9263C53.8048 15.9263 53.3336 16.38 53.3336 16.9734C53.3336 17.7063 53.8048 18.0032 54.8922 18.457L55.5265 18.7187C57.6833 19.6089 58.8976 20.5164 58.8976 22.5582C58.8976 24.7574 57.1034 25.9615 54.6929 25.9615C52.3368 25.9615 50.8144 24.8795 50.0713 23.4657" fill="black"/>
<path d="M19.902 27.201L17.655 2H42.345L40.095 27.197L29.985 30L19.902 27.201Z" fill="#E44F26"/>
<path d="M30 27.858L38.17 25.593L40.092 4.061H30V27.858Z" fill="#F1662A"/>
<path d="M30 13.407H25.91L25.628 10.242H30V7.151H22.25L22.324 7.981L23.083 16.498H30V13.407V13.407Z" fill="#EBEBEB"/>
<path d="M30 21.434L29.986 21.438L26.544 20.509L26.324 18.044H23.221L23.654 22.896L29.986 24.654L30 24.65V21.434Z" fill="#EBEBEB"/>
<path d="M29.989 13.407V16.498H33.795L33.437 20.507L29.989 21.437V24.653L36.326 22.896L36.372 22.374L37.098 14.237L37.174 13.407H29.989V13.407Z" fill="white"/>
<path d="M29.989 7.151V10.242H37.455L37.517 9.548L37.658 7.981L37.732 7.151H29.989V7.151Z" fill="white"/>
</svg>
