<svg width="123" height="74" viewBox="0 0 123 74" fill="none" xmlns="http://www.w3.org/2000/svg">
<path d="M28.9403 19.2929H52.0667V21.1312H31.0602V34.9654H50.8142V36.8034H31.0602V51.9921H52.3076V53.8301H28.9403V19.2929ZM54.1386 19.2929H56.5957L67.4843 34.4816L78.6137 19.2927L93.7516 0L68.8814 36.078L81.6973 53.8301H79.1437L67.4843 37.6741L55.7765 53.8301H53.2712L66.1834 36.0778L54.1384 19.2929H54.1386ZM82.6126 21.1312V19.2927H108.967V21.131H96.8256V53.8299H94.7057V21.1312H82.6126ZM0.00848389 19.2927H2.65835L39.1986 73.972L24.0985 53.8299L2.22465 21.905L2.12838 53.8303H0.00848389V19.2927ZM108.754 51.437C108.32 51.437 107.996 51.1017 107.996 50.6677C107.996 50.2343 108.32 49.8985 108.754 49.8985C109.192 49.8985 109.511 50.234 109.511 50.6677C109.511 51.1014 109.192 51.437 108.754 51.437ZM110.837 49.4133H111.971C111.986 50.0276 112.435 50.4407 113.095 50.4407C113.832 50.4407 114.25 49.9967 114.25 49.1655V43.8993H115.405V49.1705C115.405 50.6677 114.539 51.5301 113.105 51.5301C111.759 51.5301 110.837 50.6936 110.837 49.4131V49.4133ZM116.916 49.3463H118.06C118.158 50.0535 118.849 50.5025 119.844 50.5025C120.772 50.5025 121.453 50.0223 121.453 49.3616C121.453 48.7938 121.02 48.453 120.035 48.2207L119.076 47.9884C117.73 47.6732 117.117 47.0228 117.117 45.9284C117.117 44.6016 118.199 43.7187 119.824 43.7187C121.334 43.7187 122.438 44.6014 122.505 45.8561H121.381C121.272 45.1695 120.674 44.7408 119.808 44.7408C118.896 44.7408 118.287 45.1798 118.287 45.8508C118.287 46.3824 118.679 46.6873 119.648 46.9143L120.468 47.1157C121.994 47.4721 122.623 48.0916 122.623 49.2119C122.623 50.6368 121.52 51.5301 119.757 51.5301C118.107 51.5301 116.998 50.678 116.916 49.346V49.3463Z" fill="white" fill-opacity="0.3"/>
</svg>
