<svg width="86" height="31" viewBox="0 0 86 31" fill="none"
    xmlns="http://www.w3.org/2000/svg">
    <path d="M77.7081 20.9518C78.7045 20.831 79.4604 19.8257 79.426 18.6192C79.3917 17.4129 78.5327 16.4477 77.502 16.4477H77.4333C76.3681 16.4879 75.5435 17.5335 75.5779 18.7801C75.6123 19.3833 75.8184 19.9061 76.1276 20.268C74.9594 22.9625 73.1728 24.9329 70.4928 26.5817C68.6718 27.7077 66.7821 28.1099 64.8924 27.8285C63.3463 27.5871 62.1437 26.7829 61.3877 25.4557C60.2883 23.4852 60.1853 21.3538 61.113 19.2225C61.7658 17.6943 62.7965 16.5683 63.4493 16.0053C63.3119 15.4825 63.1057 14.5978 63.0026 13.9545C58.0206 18.177 58.536 23.8874 60.0478 26.5817C61.1816 28.5925 63.4837 29.8392 66.0262 29.8392C66.7133 29.8392 67.4005 29.7587 68.0877 29.5577C72.4857 28.5523 75.8185 25.4959 77.7081 20.9518V20.9518ZM83.7553 15.9652C81.144 12.386 77.2959 10.4156 72.8979 10.4156H72.3482C72.039 9.69173 71.3861 9.20908 70.6646 9.20908H70.5959C69.5308 9.24932 68.7063 10.2949 68.7406 11.5416C68.7749 12.748 69.6339 13.7131 70.6646 13.7131H70.7333C71.4892 13.6729 72.142 13.1099 72.4169 12.3458H73.0354C75.6467 12.3458 78.1204 13.2305 80.3538 14.9598C82.0717 16.2869 83.3086 18.0161 83.9958 20.1072C84.5799 21.7962 84.5455 23.445 83.927 24.8526C82.965 26.9839 81.3502 28.1501 79.2199 28.1501C77.8456 28.1501 76.54 27.6675 75.8527 27.3056C75.4748 27.7077 74.7876 28.3511 74.3066 28.7534C75.7841 29.5576 77.2959 30 78.7389 30C82.0373 30 84.4768 27.8686 85.4045 25.7373C86.4009 23.4048 86.3321 19.3833 83.7553 15.9652V15.9652ZM66.3011 21.6352C66.3355 22.8417 67.1944 23.8068 68.2251 23.8068H68.2939C69.359 23.7667 70.1836 22.721 70.1492 21.4744C70.1149 20.2679 69.2559 19.3029 68.2251 19.3029H68.1565C68.0877 19.3029 67.9846 19.3029 67.916 19.343C66.5073 16.6084 65.9232 13.6327 66.1294 10.4155C66.2667 8.00258 66.9539 5.9114 68.1565 4.18213C69.1528 2.69419 71.0769 1.97034 72.3826 1.93022C76.0246 1.84974 77.5706 7.15801 77.6738 9.28944C78.1204 9.41004 78.8763 9.69161 79.3917 9.89269C78.9794 3.37805 75.5435 0 72.2452 0C69.1528 0 66.3011 2.61396 65.1672 6.47453C63.5867 11.622 64.6175 16.5683 66.5415 20.4691C66.3698 20.7506 66.2667 21.193 66.3011 21.6354V21.6352Z" fill="#764ABC"/>
    <path d="M13 13.0521C14.2456 13.0521 15.2614 14.3623 15.2614 16C15.2614 17.5597 14.2456 18.8855 13 18.8855C11.7544 18.8855 10.7386 17.5597 10.7386 16C10.7386 14.3623 11.7544 13.0521 13 13.0521ZM7.40094 28.4779C8.16279 29.0706 9.83163 28.1659 11.7544 25.8263C11.1256 24.9061 10.5088 23.9079 9.92836 22.8629C8.95386 22.7426 7.98501 22.5551 7.02603 22.3013C6.4093 25.6392 6.63908 27.932 7.40094 28.4779ZM8.25952 19.525L7.90883 18.7295C7.77581 19.1819 7.64279 19.6342 7.55814 20.0709C7.88465 20.1645 8.24745 20.2425 8.62232 20.3205L8.25952 19.525ZM16.1684 18.3396L17.1479 16L16.1684 13.6604C15.8056 12.8337 15.4186 12.1007 15.0679 11.3676C14.4149 11.3208 13.7256 11.3208 13 11.3208C12.2744 11.3208 11.5851 11.3208 10.9321 11.3676C10.5814 12.1007 10.1944 12.8337 9.83164 13.6604L8.85207 16L9.83164 18.3396C10.1944 19.1663 10.5814 19.8993 10.9321 20.6324C11.5851 20.6792 12.2744 20.6792 13 20.6792C13.7256 20.6792 14.4149 20.6792 15.0679 20.6324C15.4186 19.8993 15.8056 19.1663 16.1684 18.3396ZM13 7.8582C12.7702 8.20133 12.5284 8.56008 12.2865 8.98121H13.7135C13.4716 8.56008 13.2298 8.20133 13 7.8582ZM13 24.1418C13.2298 23.7987 13.4716 23.4399 13.7135 23.0188H12.2865C12.5284 23.4399 12.7702 23.7987 13 24.1418ZM18.587 3.52213C17.8372 2.92946 16.1684 3.83409 14.2456 6.17369C14.8744 7.09395 15.4911 8.09216 16.0716 9.13717C17.0633 9.26196 18.0428 9.44913 18.9739 9.69867C19.5907 6.36086 19.3609 4.06805 18.587 3.52213ZM17.7405 12.475L18.0911 13.2705C18.2242 12.8182 18.3572 12.3658 18.4418 11.9291C18.1153 11.8355 17.7526 11.7575 17.3777 11.6796L17.7405 12.475ZM19.4939 1.47889C21.2716 2.78909 21.4651 6.23606 20.7153 10.2602C23.787 11.43 26 13.3641 26 16C26 18.6359 23.787 20.57 20.7153 21.7398C21.4651 25.764 21.2716 29.2109 19.4939 30.5211C17.7283 31.8313 15.3219 30.3339 13 27.4796C10.6781 30.3339 8.27163 31.8313 6.49395 30.5211C4.72839 29.2109 4.5349 25.764 5.28464 21.7398C2.21302 20.57 0 18.6359 0 16C0 13.3641 2.21302 11.43 5.28464 10.2602C4.5349 6.23606 4.72839 2.78909 6.49395 1.47889C8.27163 0.168713 10.6781 1.66606 13 4.52039C15.3219 1.66606 17.7283 0.168713 19.4939 1.47889ZM19.1433 16C19.5544 17.1698 19.9172 18.3396 20.2195 19.525C22.759 18.5424 24.186 17.1386 24.186 16C24.186 14.8614 22.759 13.4577 20.2195 12.475C19.9172 13.6604 19.5544 14.8302 19.1433 16ZM6.85676 16C6.44559 14.8302 6.08279 13.6604 5.78046 12.475C3.24093 13.4577 1.81395 14.8614 1.81395 16C1.81395 17.1386 3.24093 18.5424 5.78046 19.525C6.08279 18.3396 6.44559 17.1698 6.85676 16ZM17.7405 19.525L17.3777 20.3205C17.7526 20.2425 18.1153 20.1645 18.4418 20.0709C18.3572 19.6342 18.2242 19.1819 18.0911 18.7295L17.7405 19.525ZM14.2456 25.8263C16.1684 28.1659 17.8372 29.0706 18.587 28.4779C19.3609 27.932 19.5907 25.6392 18.9739 22.3013C18.0428 22.5509 17.0633 22.7381 16.0716 22.8629C15.4911 23.9079 14.8744 24.9061 14.2456 25.8263ZM8.25952 12.475L8.62232 11.6796C8.24745 11.7575 7.88465 11.8355 7.55814 11.9291C7.64279 12.3658 7.77581 12.8182 7.90883 13.2705L8.25952 12.475ZM11.7544 6.17369C9.83163 3.83409 8.16279 2.92946 7.40094 3.52213C6.63908 4.06805 6.4093 6.36086 7.02603 9.69867C7.98501 9.44488 8.95386 9.25746 9.92836 9.13717C10.5088 8.09216 11.1256 7.09395 11.7544 6.17369Z" fill="#00D8FF"/>
    <path d="M41.5059 4H43.3223C43.4837 4 43.5645 4.08073 43.5645 4.24219V25.5547C43.5645 25.7161 43.4837 25.7969 43.3223 25.7969H41.5059C41.3444 25.7969 41.2637 25.7161 41.2637 25.5547V4.24219C41.2637 4.08073 41.3444 4 41.5059 4Z" fill="#5B5A72"/>
    <path d="M32.2422 13.748H52.5859C52.7474 13.748 52.8281 13.8288 52.8281 13.9902V15.8066C52.8281 15.9681 52.7474 16.0488 52.5859 16.0488H32.2422C32.0807 16.0488 32 15.9681 32 15.8066V13.9902C32 13.8288 32.0807 13.748 32.2422 13.748Z" fill="#5B5A72"/>
</svg>
